<?xml version="1.0" encoding="UTF-8"?>
<svg xmlns="http://www.w3.org/2000/svg"
     xmlns:xlink="http://www.w3.org/1999/xlink"
     xmlns:gadfly="http://www.gadflyjl.org/ns"
     version="1.2"
     width="320mm" height="90mm" viewBox="0 0 320 90"
     stroke="none"
     fill="#000000"
     stroke-width="0.3"
     font-size="3.88"
>
<g class="plotroot xscalable yscalable" id="img-00f3c8d0-1">
  <g font-size="3.88" font-family="'PT Sans','Helvetica Neue','Helvetica',sans-serif" fill="#564A55" stroke="#000000" stroke-opacity="0.000" id="img-00f3c8d0-2">
    <text x="167.87" y="78.39" text-anchor="middle" dy="0.6em">Year</text>
  </g>
  <g class="guide xlabels" font-size="2.82" font-family="'PT Sans Caption','Helvetica Neue','Helvetica',sans-serif" fill="#6C606B" id="img-00f3c8d0-3">
    <text x="22.74" y="71.72" text-anchor="middle" dy="0.6em">1850</text>
    <text x="95.31" y="71.72" text-anchor="middle" dy="0.6em">1900</text>
    <text x="167.87" y="71.72" text-anchor="middle" dy="0.6em">1950</text>
    <text x="240.44" y="71.72" text-anchor="middle" dy="0.6em">2000</text>
    <text x="313" y="71.72" text-anchor="middle" dy="0.6em">2050</text>
  </g>
<g clip-path="url(#img-00f3c8d0-4)">
  <g id="img-00f3c8d0-5">
    <g pointer-events="visible" opacity="1" fill="#000000" fill-opacity="0.000" stroke="#000000" stroke-opacity="0.000" class="guide background" id="img-00f3c8d0-6">
      <rect x="20.75" y="5" width="294.26" height="65.72"/>
    </g>
    <g class="guide ygridlines xfixed" stroke-dasharray="0.5,0.5" stroke-width="0.2" stroke="#D0D0E0" id="img-00f3c8d0-7">
      <path fill="none" d="M20.75,68.72 L 315 68.72"/>
      <path fill="none" d="M20.75,53.29 L 315 53.29"/>
      <path fill="none" d="M20.75,37.86 L 315 37.86"/>
      <path fill="none" d="M20.75,22.43 L 315 22.43"/>
      <path fill="none" d="M20.75,7 L 315 7"/>
    </g>
    <g class="guide xgridlines yfixed" stroke-dasharray="0.5,0.5" stroke-width="0.2" stroke="#D0D0E0" id="img-00f3c8d0-8">
      <path fill="none" d="M22.74,5 L 22.74 70.72"/>
      <path fill="none" d="M95.31,5 L 95.31 70.72"/>
      <path fill="none" d="M167.87,5 L 167.87 70.72"/>
      <path fill="none" d="M240.44,5 L 240.44 70.72"/>
      <path fill="none" d="M313,5 L 313 70.72"/>
    </g>
    <g class="plotpanel" id="img-00f3c8d0-9">
      <g stroke-width="0.3" fill="#000000" fill-opacity="0.000" class="geometry color_Wisconsin" stroke-dasharray="none" stroke="#BFACFF" id="img-00f3c8d0-10">
        <path fill="none" d="M83.7,38.37 L 89.5 30.78 95.31 30.42 101.11 26.99 106.92 32.35 112.72 40.45 118.53 35.82 124.33 20.91 130.14 28.92 135.94 35.01 141.75 47.81 147.55 48.21 153.36 38.42 159.16 37.3 164.97 39.22 170.78 30.99 176.58 30.53 182.39 36.71 188.19 45.37 194 36.74 199.8 34.87 205.61 38.38 211.41 36.4 217.22 35.03 223.02 38.97 228.83 39.2 234.63 41.05 240.44 37.93 246.24 37.97 252.05 42.15 257.85 40"/>
      </g>
      <g stroke-width="0.3" fill="#000000" fill-opacity="0.000" class="geometry color_West_Virginia" stroke-dasharray="none" stroke="#00B1FF" id="img-00f3c8d0-11">
        <path fill="none" d="M43.06,26.6 L 48.87 32.41 54.67 36.48 60.48 42.36 66.28 40.91 72.09 38.84 77.89 37.96 83.7 38.61 89.5 36.19 95.31 34.92 101.11 33.77 106.92 34.7 112.72 44.34 118.53 37.57 124.33 34.15 130.14 36.2 135.94 32.49 141.75 40.94 147.55 44.45 153.36 42.24 159.16 40.87 164.97 42.51 170.78 39.04 176.58 35.34 182.39 39.54 188.19 48.93 194 40.58 199.8 29.46 205.61 42.84 211.41 39.25 217.22 34.61 223.02 39.32 228.83 41.88 234.63 42.41 240.44 35.91 246.24 33.89 252.05 33.82 257.85 29.62"/>
      </g>
      <g stroke-width="0.3" fill="#000000" fill-opacity="0.000" class="geometry color_Washington" stroke-dasharray="none" stroke="#F77EEC" id="img-00f3c8d0-12">
        <path fill="none" d="M83.7,35.52 L 89.5 42.53 95.31 34.23 101.11 22.24 106.92 29.91 112.72 39.42 118.53 39.17 124.33 27.11 130.14 24.87 135.94 26.82 141.75 45.12 147.55 49.12 153.36 43.3 159.16 42.36 164.97 40.92 170.78 34.88 176.58 35.25 182.39 37.11 188.19 45.45 194 38.51 199.8 32.22 205.61 36.66 211.41 34.05 217.22 33.86 223.02 38.35 228.83 41.39 234.63 41.73 240.44 39.58 246.24 40.07 252.05 43.13 257.85 42.42"/>
      </g>
      <g stroke-width="0.3" fill="#000000" fill-opacity="0.000" class="geometry color_Virginia" stroke-dasharray="none" stroke="#FF9C70" id="img-00f3c8d0-13">
        <path fill="none" d="M37.26,40.5 L 54.67 37.55 60.48 43.77 66.28 44.35 72.09 38.52 77.89 38.02 83.7 43.25 89.5 39.88 95.31 41.4 101.11 45.54 106.92 44.7 112.72 52.96 118.53 48.57 124.33 45.1 130.14 47.02 135.94 35.39 141.75 49.7 147.55 50.46 153.36 49.13 159.16 45.56 164.97 39.97 170.78 33.86 176.58 32.61 182.39 36.17 188.19 40.13 194 34.5 199.8 26.22 205.61 37.45 211.41 33.93 217.22 30.08 223.02 31.53 228.83 36.51 234.63 37.25 240.44 35.38 246.24 35.33 252.05 39.8 257.85 39.05"/>
      </g>
      <g stroke-width="0.3" fill="#000000" fill-opacity="0.000" class="geometry color_Vermont" stroke-dasharray="none" stroke="#E9C268" id="img-00f3c8d0-14">
        <path fill="none" d="M37.26,20.44 L 43.06 21.75 48.87 20.22 54.67 20.06 60.48 26.46 66.28 25 72.09 26.33 77.89 24.47 83.7 25.87 89.5 18.29 95.31 21.54 101.11 19.61 106.92 21.42 112.72 33.94 118.53 29.46 124.33 21.64 130.14 18.56 135.94 27.37 141.75 32.74 147.55 33.8 153.36 34.82 159.16 33.5 164.97 30.26 170.78 24.52 176.58 24.17 182.39 32.52 188.19 47.92 194 35.01 199.8 29.77 205.61 34.4 211.41 36.02 217.22 32.58 223.02 36.77 228.83 42.7 234.63 44.73 240.44 40.92 246.24 44.07 252.05 49.28 257.85 48.84"/>
      </g>
      <g stroke-width="0.3" fill="#000000" fill-opacity="0.000" class="geometry color_Utah" stroke-dasharray="none" stroke="#FF7572" id="img-00f3c8d0-15">
        <path fill="none" d="M89.5,58.05 L 95.31 37.15 101.11 29.05 106.92 32.62 112.72 36.34 118.53 44.33 124.33 32.59 130.14 31.9 135.94 35.48 141.75 42.63 147.55 50.06 153.36 45.47 159.16 44.34 164.97 40.62 170.78 32.35 176.58 28.87 182.39 34.88 188.19 40.86 194 31.86 199.8 25.13 205.61 28.97 211.41 21.75 217.22 22.48 223.02 27.31 228.83 32.08 234.63 31.35 240.44 25.36 246.24 23.8 252.05 29.22 257.85 23.08"/>
      </g>
      <g stroke-width="0.3" fill="#000000" fill-opacity="0.000" class="geometry color_Texas" stroke-dasharray="none" stroke="#00C19D" id="img-00f3c8d0-16">
        <path fill="none" d="M37.26,37.86 L 54.67 42.91 60.48 50.23 66.28 50.44 72.09 50.39 77.89 50.5 83.7 49.41 89.5 49.35 95.31 47.82 101.11 53.15 106.92 53.79 112.72 57.38 118.53 56.21 124.33 48.91 130.14 54.5 135.94 36.73 141.75 61.53 147.55 60.93 153.36 56.99 159.16 54.76 164.97 50.72 170.78 35.87 176.58 34.38 182.39 38.48 188.19 46.13 194 38.25 199.8 27.69 205.61 38.84 211.41 33.58 217.22 29.37 223.02 33.97 228.83 36.78 234.63 36.34 240.44 31.28 246.24 30.8 252.05 34.23 257.85 32.99"/>
      </g>
      <g stroke-width="0.3" fill="#000000" fill-opacity="0.000" class="geometry color_Tennessee" stroke-dasharray="none" stroke="#00B86C" id="img-00f3c8d0-17">
        <path fill="none" d="M37.26,40.24 L 48.87 26.49 54.67 39.19 60.48 43.9 66.28 40.63 72.09 39.01 77.89 39.86 83.7 42.03 89.5 39.63 95.31 40.35 101.11 41.2 106.92 39.97 112.72 46.74 118.53 42.06 124.33 36.9 130.14 40.73 135.94 35.48 141.75 48.35 147.55 49.57 153.36 48.63 159.16 44.41 164.97 41.64 170.78 37.77 176.58 37.67 182.39 35.65 188.19 41.26 194 34.86 199.8 26.15 205.61 41.87 211.41 37.77 217.22 32.84 223.02 32.81 228.83 39.29 234.63 38.6 240.44 36.67 246.24 33.45 252.05 33.21 257.85 31.57"/>
      </g>
      <g stroke-width="0.3" fill="#000000" fill-opacity="0.000" class="geometry color_South_Dakota" stroke-dasharray="none" stroke="#CE9247" id="img-00f3c8d0-18">
        <path fill="none" d="M83.7,26.56 L 89.5 37.93 95.31 33.05 101.11 22.61 106.92 30.53 112.72 50.84 118.53 36.65 124.33 25.2 130.14 26.64 135.94 31.38 141.75 46.88 147.55 41.41 153.36 33.29 159.16 32.72 164.97 36.38 170.78 25.96 176.58 32.68 182.39 32.79 188.19 41.32 194 34.37 199.8 35.19 205.61 37.4 211.41 28.96 217.22 29.69 223.02 35.9 228.83 36.77 234.63 36.79 240.44 30.84 246.24 31.23 252.05 35.26 257.85 32.3"/>
      </g>
      <g stroke-width="0.3" fill="#000000" fill-opacity="0.000" class="geometry color_South_Carolina" stroke-dasharray="none" stroke="#A6C537" id="img-00f3c8d0-19">
        <path fill="none" d="M48.87,32.96 L 54.67 21.83 60.48 37.71 66.28 47.54 72.09 53.85 77.89 57.95 83.7 55.95 89.5 60.01 95.31 64.37 101.11 65.85 106.92 64.98 112.72 67.13 118.53 66.95 124.33 66.29 130.14 66.97 135.94 63.42 141.75 67.52 147.55 67.84 153.36 66.02 159.16 63.53 164.97 44.14 170.78 38.3 176.58 44.09 182.39 38.62 188.19 32.37 194 35.24 199.8 24.69 205.61 41.88 211.41 37.38 217.22 29.22 223.02 30.48 228.83 35.34 234.63 35.99 240.44 32.94 246.24 32.59 252.05 35.09 257.85 34.63"/>
      </g>
      <g stroke-width="0.3" fill="#000000" fill-opacity="0.000" class="geometry color_Rhode_Island" stroke-dasharray="none" stroke="#69CE74" id="img-00f3c8d0-20">
        <path fill="none" d="M37.26,30.84 L 43.06 30.3 48.87 27.68 54.67 24.31 60.48 31.98 66.28 30.03 72.09 31.61 77.89 34.5 83.7 36.33 89.5 24.92 95.31 30.23 101.11 30.32 106.92 29.65 112.72 38.93 118.53 36.29 124.33 28.23 130.14 30.71 135.94 38.05 141.75 41.49 147.55 41.84 153.36 42.04 159.16 43.21 164.97 42.84 170.78 37.29 176.58 32.76 182.39 46.27 188.19 56.91 194 47.81 199.8 35.95 205.61 41.34 211.41 41.09 217.22 36.73 223.02 41.47 228.83 43.42 234.63 48.01 240.44 46.83 246.24 44.26 252.05 46.44 257.85 46.33"/>
      </g>
      <g stroke-width="0.3" fill="#000000" fill-opacity="0.000" class="geometry color_Pennsylvania" stroke-dasharray="none" stroke="#00BAE5" id="img-00f3c8d0-21">
        <path fill="none" d="M37.26,21.58 L 43.06 36.78 48.87 36.5 54.67 30.32 60.48 37.13 66.28 36.54 72.09 34.92 77.89 35.4 83.7 35.9 89.5 30.23 95.31 30.27 101.11 25.31 106.92 30.63 112.72 40.96 118.53 33.53 124.33 25.96 130.14 23.58 135.94 28.18 141.75 36.16 147.55 42.81 153.36 39.98 159.16 38.71 164.97 36.62 170.78 36.04 176.58 33.79 182.39 38.57 188.19 47.18 194 38.96 199.8 31.69 205.61 38.68 211.41 35.66 217.22 35.59 223.02 37.14 228.83 40.64 234.63 40.7 240.44 39.14 246.24 38.63 252.05 41.04 257.85 39.52"/>
      </g>
      <g stroke-width="0.3" fill="#000000" fill-opacity="0.000" class="geometry color_Oregon" stroke-dasharray="none" stroke="#FF5F82" id="img-00f3c8d0-22">
        <path fill="none" d="M37.26,35.32 L 43.06 35.45 48.87 38.09 54.67 31.61 60.48 36.77 66.28 37.36 72.09 36.54 77.89 34.48 83.7 29.7 89.5 37.21 95.31 32.9 101.11 23.16 106.92 31.05 112.72 40.65 118.53 37.06 124.33 29.63 130.14 29.58 135.94 28.59 141.75 44.37 147.55 48.59 153.36 40.35 159.16 39.35 164.97 36.81 170.78 31.19 176.58 34.62 182.39 36.24 188.19 46.42 194 35.99 199.8 34.73 205.61 37.81 211.41 34.88 217.22 34.1 223.02 39.3 228.83 40.93 234.63 40.35 240.44 37.99 246.24 39.14 252.05 42.9 257.85 41.59"/>
      </g>
      <g stroke-width="0.3" fill="#000000" fill-opacity="0.000" class="geometry color_Oklahoma" stroke-dasharray="none" stroke="#FF8863" id="img-00f3c8d0-23">
        <path fill="none" d="M106.92,39.3 L 112.72 41.31 118.53 43.23 124.33 36.16 130.14 39.58 135.94 29.13 141.75 52.23 147.55 48.39 153.36 42.54 159.16 41.36 164.97 45.72 170.78 35.03 176.58 34.69 182.39 32.29 188.19 41.4 194 33.01 199.8 22.52 205.61 37.48 211.41 29.98 217.22 26.15 223.02 32.72 228.83 35.2 234.63 35.45 240.44 31.11 246.24 28.25 252.05 28.2 257.85 27.51"/>
      </g>
      <g stroke-width="0.3" fill="#000000" fill-opacity="0.000" class="geometry color_Ohio" stroke-dasharray="none" stroke="#B7AE4E" id="img-00f3c8d0-24">
        <path fill="none" d="M37.26,35.41 L 43.06 33.93 48.87 35.39 54.67 35.67 60.48 37.51 66.28 36.4 72.09 36.61 77.89 37.14 83.7 37.82 89.5 36.38 95.31 35.81 101.11 30.01 106.92 35.94 112.72 42.22 118.53 40.23 124.33 31.72 130.14 27.17 135.94 28.47 141.75 38.74 147.55 44.2 153.36 39.22 159.16 37.74 164.97 37.93 170.78 33.69 176.58 31 182.39 35.83 188.19 45.85 194 37.15 199.8 31.2 205.61 37.94 211.41 34.59 217.22 32.07 223.02 34.51 228.83 38.42 234.63 39.82 240.44 36.78 246.24 37.21 252.05 39.27 257.85 38.78"/>
      </g>
      <g stroke-width="0.3" fill="#000000" fill-opacity="0.000" class="geometry color_North_Dakota" stroke-dasharray="none" stroke="#7FBB52" id="img-00f3c8d0-25">
        <path fill="none" d="M83.7,22.89 L 89.5 34.18 95.31 29.65 101.11 20.97 106.92 29.76 112.72 40.16 118.53 38.32 124.33 19.47 130.14 25.29 135.94 34.67 141.75 50.69 147.55 48.05 153.36 34.5 159.16 35.28 164.97 35.16 170.78 24.72 176.58 30.57 182.39 34.49 188.19 42.82 194 32.39 199.8 29.75 205.61 36.05 211.41 26.14 217.22 28.28 223.02 33.83 228.83 34.14 234.63 35.76 240.44 29.34 246.24 29.41 252.05 35.19 257.85 31.8"/>
      </g>
      <g stroke-width="0.3" fill="#000000" fill-opacity="0.000" class="geometry color_North_Carolina" stroke-dasharray="none" stroke="#00E392" id="img-00f3c8d0-26">
        <path fill="none" d="M37.26,38.73 L 48.87 35.75 54.67 33.25 60.48 40.09 66.28 38.96 72.09 39.91 77.89 39.28 83.7 41.45 89.5 39.65 95.31 40.47 101.11 44.04 106.92 40.55 112.72 52.45 118.53 42.91 124.33 42.02 130.14 43.77 135.94 34.81 141.75 50.4 147.55 52.3 153.36 52.69 159.16 48.17 164.97 45.68 170.78 40.27 176.58 38.27 182.39 39.16 188.19 41.65 194 34.69 199.8 25.34 205.61 41.27 211.41 37.2 217.22 30.45 223.02 32.84 228.83 37.61 234.63 36.41 240.44 33.9 246.24 34.02 252.05 37.96 257.85 37.23"/>
      </g>
      <g stroke-width="0.3" fill="#000000" fill-opacity="0.000" class="geometry color_New_York" stroke-dasharray="none" stroke="#CBB4FF" id="img-00f3c8d0-27">
        <path fill="none" d="M37.26,35.57 L 43.06 37.57 48.87 38.22 54.67 35.87 60.48 38.85 66.28 37.27 72.09 37.89 77.89 37.52 83.7 38.91 89.5 32.04 95.31 35 101.11 34.51 106.92 34.04 112.72 41.74 118.53 35.69 124.33 26.25 130.14 29.64 135.94 37.13 141.75 41.79 147.55 43.99 153.36 38.95 159.16 39.4 164.97 37.55 170.78 34.19 176.58 30.94 182.39 39.48 188.19 49.35 194 39.54 199.8 32.51 205.61 39.22 211.41 37.03 217.22 35.39 223.02 39.12 228.83 42.75 234.63 46.76 240.44 45.57 246.24 43.5 252.05 46.15 257.85 46.55"/>
      </g>
      <g stroke-width="0.3" fill="#000000" fill-opacity="0.000" class="geometry color_New_Mexico" stroke-dasharray="none" stroke="#00D4C3" id="img-00f3c8d0-28">
        <path fill="none" d="M112.72,39.55 L 118.53 38.95 124.33 34.65 130.14 36.16 135.94 32.25 141.75 46.18 147.55 45.94 153.36 41.96 159.16 40.03 164.97 42.01 170.78 34.43 176.58 32.91 182.39 38.09 188.19 43.71 194 34.12 199.8 30.3 205.61 37.1 211.41 32.25 217.22 31.54 223.02 36.33 228.83 40.5 234.63 40.12 240.44 37.88 246.24 37.61 252.05 42.53 257.85 40.99"/>
      </g>
      <g stroke-width="0.3" fill="#000000" fill-opacity="0.000" class="geometry color_New_Jersey" stroke-dasharray="none" stroke="#FAA737" id="img-00f3c8d0-29">
        <path fill="none" d="M37.26,39.01 L 43.06 39.61 48.87 38.4 54.67 35.07 60.48 39.6 66.28 38.11 72.09 38.37 77.89 38.58 83.7 39.23 89.5 30.56 95.31 33.48 101.11 32.11 106.92 32.39 112.72 44.24 118.53 34.24 124.33 25.75 130.14 27.13 135.94 31.69 141.75 38.44 147.55 44.02 153.36 38.97 159.16 38.27 164.97 36.5 170.78 33.28 176.58 28.46 182.39 38.1 188.19 47.65 194 37.2 199.8 30.21 205.61 37.19 211.41 33.72 217.22 31.41 223.02 33.65 228.83 38.59 234.63 43.37 240.44 42.74 246.24 39.92 252.05 42.65 257.85 43.33"/>
      </g>
      <g stroke-width="0.3" fill="#000000" fill-opacity="0.000" class="geometry color_New_Hampshire" stroke-dasharray="none" stroke="#C483E9" id="img-00f3c8d0-30">
        <path fill="none" d="M37.26,32.41 L 43.06 36.28 48.87 34.63 54.67 35.29 60.48 36.69 66.28 36.41 72.09 36.38 77.89 37.09 83.7 36.62 89.5 24.66 95.31 31.41 101.11 30.98 106.92 31.14 112.72 38.49 118.53 37.88 124.33 31.55 130.14 30.11 135.94 32.42 141.75 37.41 147.55 38.4 153.36 39.85 159.16 39.17 164.97 36.08 170.78 31.12 176.58 27.9 182.39 35.75 188.19 46.43 194 35.33 199.8 28.87 205.61 34.38 211.41 28.79 217.22 26.22 223.02 29.79 228.83 38.23 234.63 40.93 240.44 37.47 246.24 38.28 252.05 40.82 257.85 39.58"/>
      </g>
      <g stroke-width="0.3" fill="#000000" fill-opacity="0.000" class="geometry color_Nevada" stroke-dasharray="none" stroke="#00E4FF" id="img-00f3c8d0-31">
        <path fill="none" d="M43.06,31.78 L 48.87 34.53 54.67 33.27 60.48 36.17 66.28 39.34 72.09 33.96 77.89 32.98 83.7 31.91 89.5 57.12 95.31 45.42 101.11 30.52 106.92 38.41 112.72 45.21 118.53 43.09 124.33 31.47 130.14 31.74 135.94 33.82 141.75 49.84 147.55 51.93 153.36 44.08 159.16 40.71 164.97 38.82 170.78 30.79 176.58 32.94 182.39 38.57 188.19 43.15 194 35.34 199.8 29.41 205.61 36.51 211.41 26.86 217.22 27.4 223.02 31.4 228.83 38.67 234.63 38.17 240.44 36.76 246.24 37.06 252.05 41.71 257.85 39.92"/>
      </g>
      <g stroke-width="0.3" fill="#000000" fill-opacity="0.000" class="geometry color_Nebraska" stroke-dasharray="none" stroke="#00D3FF" id="img-00f3c8d0-32">
        <path fill="none" d="M48.87,29.27 L 54.67 25.09 60.48 28.79 66.28 28.52 72.09 32.68 77.89 33.61 83.7 28.26 89.5 39.51 95.31 36.86 101.11 26.15 106.92 38.33 112.72 44.63 118.53 42.27 124.33 27.55 130.14 32.45 135.94 29.52 141.75 46.4 147.55 42.92 153.36 33.42 159.16 32.56 164.97 35.29 170.78 26.04 176.58 28.28 182.39 30.41 188.19 39.47 194 29.21 199.8 25.2 205.61 31.46 211.41 25.67 217.22 24.98 223.02 31.39 228.83 32.56 234.63 32.09 240.44 28.91 246.24 27.61 252.05 33.25 257.85 31.14"/>
      </g>
      <g stroke-width="0.3" fill="#000000" fill-opacity="0.000" class="geometry color_Montana" stroke-dasharray="none" stroke="#FF8AC9" id="img-00f3c8d0-33">
        <path fill="none" d="M83.7,37.04 L 89.5 56.44 95.31 43.61 101.11 31.56 106.92 36.51 112.72 41.5 118.53 43.82 124.33 28.88 130.14 30.72 135.94 32.34 141.75 44.87 147.55 50.72 153.36 43.6 159.16 40.74 164.97 40.93 170.78 31.9 176.58 33.45 182.39 37.08 188.19 43.53 194 35.08 199.8 31.66 205.61 35.56 211.41 30.33 217.22 30.98 223.02 36.05 228.83 38.63 234.63 36.97 240.44 30.12 246.24 31.53 252.05 37.12 257.85 33.65"/>
      </g>
      <g stroke-width="0.3" fill="#000000" fill-opacity="0.000" class="geometry color_Missouri" stroke-dasharray="none" stroke="#00C9D7" id="img-00f3c8d0-34">
        <path fill="none" d="M37.26,45.64 L 43.06 25.69 48.87 33.56 54.67 41.5 60.48 42.88 66.28 42.13 72.09 40.16 77.89 39.38 83.7 40.18 89.5 40.55 95.31 39.56 101.11 36.65 106.92 37.83 112.72 43.29 118.53 38.98 124.33 34.33 130.14 36.07 135.94 34.33 141.75 46.69 147.55 44.83 153.36 39.33 159.16 38.77 164.97 42.98 170.78 37.37 176.58 37.92 182.39 38.02 188.19 46.53 194 37.51 199.8 30.27 205.61 38.98 211.41 35.76 217.22 31.67 223.02 36.63 228.83 40.99 234.63 39.8 240.44 36.83 246.24 35.64 252.05 37.82 257.85 34.97"/>
      </g>
      <g stroke-width="0.3" fill="#000000" fill-opacity="0.000" class="geometry color_Mississippi" stroke-dasharray="none" stroke="#52A1F7" id="img-00f3c8d0-35">
        <path fill="none" d="M37.26,39.32 L 54.67 29.54 60.48 49.01 66.28 48.64 72.09 46.71 77.89 52.61 83.7 60.56 89.5 63.81 95.31 61.89 101.11 64.24 106.92 63.65 112.72 64.54 118.53 64.97 124.33 59.44 130.14 63.1 135.94 57.67 141.75 66.38 147.55 66.95 153.36 66.1 159.16 64.74 164.97 40.16 170.78 44.3 176.58 48.28 182.39 41.46 188.19 14.94 194 40.79 199.8 19.78 205.61 38.44 211.41 37.45 217.22 30.33 223.02 31.43 228.83 35.11 234.63 36.28 240.44 32.64 246.24 31.78 252.05 33.79 257.85 34.31"/>
      </g>
      <g stroke-width="0.3" fill="#000000" fill-opacity="0.000" class="geometry color_Minnesota" stroke-dasharray="none" stroke="#C39800" id="img-00f3c8d0-36">
        <path fill="none" d="M37.26,28.84 L 43.06 32.27 48.87 31.14 54.67 30.9 60.48 31.8 66.28 29.55 72.09 31.1 77.89 33.39 83.7 35.33 89.5 33 95.31 30.29 101.11 20.84 106.92 29.81 112.72 41.74 118.53 37.83 124.33 22.07 130.14 24.16 135.94 32.63 141.75 45.15 147.55 47.37 153.36 39.04 159.16 39.57 164.97 43.19 170.78 34.4 176.58 35.51 182.39 38.3 188.19 46.42 194 41.73 199.8 36.16 205.61 41.83 211.41 39.07 217.22 37.91 223.02 40.02 228.83 41.45 234.63 42.84 240.44 38.6 246.24 38.93 252.05 41.02 257.85 40.23"/>
      </g>
      <g stroke-width="0.3" fill="#000000" fill-opacity="0.000" class="geometry color_Michigan" stroke-dasharray="none" stroke="#FFA9F6" id="img-00f3c8d0-37">
        <path fill="none" d="M37.26,33.15 L 43.06 35.63 48.87 33.55 54.67 29.47 60.48 35.41 66.28 33.16 72.09 37.6 77.89 36.37 83.7 36.46 89.5 34.68 95.31 31.93 101.11 24.37 106.92 28.76 112.72 37.77 118.53 35.38 124.33 22.28 130.14 18.65 135.94 25.07 141.75 40.3 147.55 43.28 153.36 37.76 159.16 38.17 164.97 37.34 170.78 34.32 176.58 34.31 182.39 38.48 188.19 48.23 194 39.93 199.8 33.42 205.61 36.19 211.41 35.86 217.22 32 223.02 35.42 228.83 40.14 234.63 41.93 240.44 39.44 246.24 38.91 252.05 42.93 257.85 40.78"/>
      </g>
      <g stroke-width="0.3" fill="#000000" fill-opacity="0.000" class="geometry color_Massachusetts" stroke-dasharray="none" stroke="#4AC087" id="img-00f3c8d0-38">
        <path fill="none" d="M37.26,24.72 L 43.06 24.14 48.87 25.66 54.67 25.98 60.48 32.95 66.28 32.01 72.09 35.38 77.89 34.96 83.7 35.81 89.5 24.54 95.31 31.77 101.11 31.47 106.92 30.4 112.72 38.96 118.53 36.65 124.33 25.3 130.14 26.31 135.94 38.19 141.75 39.09 147.55 40.78 153.36 39.94 159.16 39.65 164.97 41.41 170.78 35.15 176.58 32.01 182.39 44.24 188.19 54.13 194 47.15 199.8 40.62 205.61 42.69 211.41 37.81 217.22 37 223.02 40.28 228.83 43.57 234.63 48.16 240.44 46.28 246.24 45.62 252.05 45.82 257.85 45"/>
      </g>
      <g stroke-width="0.3" fill="#000000" fill-opacity="0.000" class="geometry color_Maryland" stroke-dasharray="none" stroke="#FFA1B2" id="img-00f3c8d0-39">
        <path fill="none" d="M37.26,39.08 L 43.06 34.72 48.87 48.47 54.67 38.07 60.48 41.59 66.28 40.58 72.09 39.7 77.89 38.76 83.7 40.91 89.5 33.81 95.31 36.23 101.11 37.85 106.92 37.78 112.72 45.53 118.53 40.33 124.33 33.86 130.14 36.62 135.94 33.31 141.75 45.71 147.55 45.67 153.36 43.23 159.16 39 164.97 37.43 170.78 34.3 176.58 31.66 182.39 40.09 188.19 47.4 194 38.37 199.8 30.48 205.61 39.73 211.41 38.77 217.22 36.16 223.02 36.96 228.83 42.23 234.63 42.79 240.44 42.92 246.24 41.86 252.05 45.71 257.85 45.9"/>
      </g>
      <g stroke-width="0.3" fill="#000000" fill-opacity="0.000" class="geometry color_Maine" stroke-dasharray="none" stroke="#C6C6C6" id="img-00f3c8d0-40">
        <path fill="none" d="M37.26,27.73 L 43.06 32.26 48.87 30.2 54.67 26.84 60.48 33.54 66.28 35.96 72.09 33.11 77.89 32.26 83.7 33.91 89.5 25.92 95.31 29.51 101.11 25.84 106.92 28.69 112.72 43.71 118.53 36.62 124.33 25.79 130.14 22.37 135.94 26.24 141.75 33.96 147.55 33.55 153.36 37.14 159.16 36.32 164.97 33.39 170.78 27.9 176.58 24.98 182.39 33.51 188.19 49.48 194 41.63 199.8 30.77 205.61 37.6 211.41 36.82 217.22 31.05 223.02 34.32 228.83 40.44 234.63 44.3 240.44 39.44 246.24 40.63 252.05 43.2 257.85 42.57"/>
      </g>
      <g stroke-width="0.3" fill="#000000" fill-opacity="0.000" class="geometry color_Louisiana" stroke-dasharray="none" stroke="#FFB279" id="img-00f3c8d0-41">
        <path fill="none" d="M37.26,42.52 L 48.87 50.63 54.67 34.35 60.48 36.84 66.28 45.56 72.09 42.44 77.89 52.33 83.7 54.23 89.5 54.7 95.31 55.78 101.11 62.19 106.92 60.29 112.72 60.07 118.53 62.22 124.33 49.82 130.14 55.2 135.94 54.08 141.75 64.33 147.55 61.82 153.36 60.01 159.16 56.74 164.97 42.58 170.78 39.66 176.58 33.61 182.39 44.59 188.19 33.65 194 39.32 199.8 26.45 205.61 39.64 211.41 36.18 217.22 30.88 223.02 34.71 228.83 39.28 234.63 41.58 240.44 35.49 246.24 33.38 252.05 32.11 257.85 32.55"/>
      </g>
      <g stroke-width="0.3" fill="#000000" fill-opacity="0.000" class="geometry color_Kentucky" stroke-dasharray="none" stroke="#00BA8B" id="img-00f3c8d0-42">
        <path fill="none" d="M37.26,42.98 L 43.06 50.09 48.87 53.01 54.67 39.67 60.48 45.26 66.28 42.75 72.09 41.68 77.89 40.42 83.7 41.48 89.5 37.84 95.31 38.38 101.11 38.69 106.92 38.38 112.72 44.94 118.53 39.53 124.33 37.99 130.14 36.94 135.94 32.03 141.75 43.69 147.55 43.6 153.36 42.53 159.16 40.71 164.97 42.57 170.78 37.88 176.58 35.05 182.39 35.64 188.19 46.61 194 35.96 199.8 29.03 205.61 40.07 211.41 37.41 217.22 31.48 223.02 34.27 228.83 38.85 234.63 38.15 240.44 33.19 246.24 31.73 252.05 32.85 257.85 30.86"/>
      </g>
      <g stroke-width="0.3" fill="#000000" fill-opacity="0.000" class="geometry color_Kansas" stroke-dasharray="none" stroke="#EF7C75" id="img-00f3c8d0-43">
        <path fill="none" d="M43.06,18.91 L 48.87 26.24 54.67 27.47 60.48 27.81 66.28 28.39 72.09 30.4 77.89 30.39 83.7 22.92 89.5 38.99 95.31 35.82 101.11 25.95 106.92 34.9 112.72 43.67 118.53 39.67 124.33 27.91 130.14 26.15 135.94 23.98 141.75 40.77 147.55 40.24 153.36 33.39 159.16 31.35 164.97 35.07 170.78 26.05 176.58 28.22 182.39 31.27 188.19 40.64 194 31.65 199.8 26.08 205.61 35.53 211.41 30.28 217.22 27.47 223.02 33.77 228.83 36.27 234.63 32.24 240.44 31.44 246.24 30.03 252.05 33.25 257.85 31.2"/>
      </g>
      <g stroke-width="0.3" fill="#000000" fill-opacity="0.000" class="geometry color_Iowa" stroke-dasharray="none" stroke="#A3D57C" id="img-00f3c8d0-44">
        <path fill="none" d="M37.26,34.34 L 43.06 29.14 48.87 30.5 54.67 29.25 60.48 31.62 66.28 30.39 72.09 36.24 77.89 35.44 83.7 36.23 89.5 33.98 95.31 32.12 101.11 27.77 106.92 33.21 112.72 41.96 118.53 34.35 124.33 23.83 130.14 25.95 135.94 30.39 141.75 43.32 147.55 41.47 153.36 36.5 159.16 36.47 164.97 38.7 170.78 29.17 176.58 32.18 182.39 33.7 188.19 45.25 194 34.1 199.8 32.57 205.61 37.55 211.41 33.94 217.22 35.58 223.02 41.01 228.83 39.71 234.63 41.05 240.44 37.95 246.24 37.65 252.05 40.8 257.85 39.65"/>
      </g>
      <g stroke-width="0.3" fill="#000000" fill-opacity="0.000" class="geometry color_Indiana" stroke-dasharray="none" stroke="#8AAA16" id="img-00f3c8d0-45">
        <path fill="none" d="M37.26,35.19 L 43.06 35.64 48.87 37 54.67 35.88 60.48 38.25 66.28 37.42 72.09 38.26 77.89 37.72 83.7 38.25 89.5 36.98 95.31 36.63 101.11 33.61 106.92 37.4 112.72 44.02 118.53 37.56 124.33 33.34 130.14 32.75 135.94 31.66 141.75 41.48 147.55 42.41 153.36 37.42 159.16 36.11 164.97 37.61 170.78 32.58 176.58 31.62 182.39 34.64 188.19 41.69 194 34.06 199.8 27.74 205.61 35.51 211.41 32.19 217.22 30.45 223.02 31.64 228.83 35.97 234.63 36.13 240.44 33.03 246.24 31.48 252.05 38.18 257.85 34.71"/>
      </g>
      <g stroke-width="0.3" fill="#000000" fill-opacity="0.000" class="geometry color_Illinois" stroke-dasharray="none" stroke="#A28FFA" id="img-00f3c8d0-46">
        <path fill="none" d="M37.26,36.77 L 43.06 35.13 48.87 34.34 54.67 33.76 60.48 36.77 66.28 35.84 72.09 36.71 77.89 36.94 83.7 38.81 89.5 33.85 95.31 35.27 101.11 29.11 106.92 33.07 112.72 41.94 118.53 35.01 124.33 24.8 130.14 26.91 135.94 33.34 141.75 41.93 147.55 43.42 153.36 38.61 159.16 38.93 164.97 38.12 170.78 34.8 176.58 31.92 182.39 37.91 188.19 43.7 194 36.96 199.8 32.14 205.61 37.25 211.41 35.41 217.22 33.88 223.02 37.21 228.83 42.25 234.63 43.26 240.44 41.56 246.24 41.05 252.05 45.6 257.85 43.05"/>
      </g>
      <g stroke-width="0.3" fill="#000000" fill-opacity="0.000" class="geometry color_Idaho" stroke-dasharray="none" stroke="#00DEE6" id="img-00f3c8d0-47">
        <path fill="none" d="M83.7,24.18 L 89.5 55.38 95.31 39.04 101.11 25.4 106.92 32.64 112.72 38.18 118.53 41.22 124.33 28.21 130.14 28.36 135.94 28.82 141.75 44.15 147.55 47.04 153.36 40.65 159.16 38.93 164.97 38.7 170.78 28.29 176.58 30.95 182.39 35.52 188.19 38.42 194 29.79 199.8 26.07 205.61 30.83 211.41 25.12 217.22 23.67 223.02 29.81 228.83 33.66 234.63 32.14 240.44 25.66 246.24 26.09 252.05 30.05 257.85 28.08"/>
      </g>
      <g stroke-width="0.3" fill="#000000" fill-opacity="0.000" class="geometry color_Hawaii" stroke-dasharray="none" stroke="#D581CB" id="img-00f3c8d0-48">
        <path fill="none" d="M182.39,37.88 L 188.19 55.61 194 44.38 199.8 30.16 205.61 38.64 211.41 38.44 217.22 34.38 223.02 40.79 228.83 41.37 234.63 45.66 240.44 43.51 246.24 40.56 252.05 51.82 257.85 51.04"/>
      </g>
      <g stroke-width="0.3" fill="#000000" fill-opacity="0.000" class="geometry color_Georgia" stroke-dasharray="none" stroke="#93C1FF" id="img-00f3c8d0-49">
        <path fill="none" d="M37.26,41.21 L 48.87 46.66 54.67 40.92 60.48 51.46 66.28 47.36 72.09 47.76 77.89 50.81 83.7 49.06 89.5 44.41 95.31 49.78 101.11 51.87 106.92 45.08 112.72 60.19 118.53 60.22 124.33 51.57 130.14 55.07 135.94 41.93 141.75 63.72 147.55 60.85 153.36 59.46 159.16 57.45 164.97 50.97 170.78 49.99 176.58 48.3 182.39 45.61 188.19 35.31 194 36.73 199.8 22.31 205.61 48.28 211.41 42.43 217.22 31.57 223.02 31.61 228.83 38.04 234.63 37.5 240.44 34.25 246.24 32.74 252.05 36.25 257.85 35.45"/>
      </g>
      <g stroke-width="0.3" fill="#000000" fill-opacity="0.000" class="geometry color_Florida" stroke-dasharray="none" stroke="#00BBAA" id="img-00f3c8d0-50">
        <path fill="none" d="M37.26,38.37 L 54.67 35.69 60.48 37.25 66.28 40.43 72.09 39.78 77.89 43.9 83.7 64.09 89.5 52.1 95.31 54.14 101.11 52.56 106.92 50.64 112.72 56.71 118.53 53.67 124.33 47.53 130.14 46.75 135.94 32.7 141.75 53.18 147.55 53.96 153.36 52.68 159.16 50.4 164.97 42.54 170.78 34.77 176.58 33.37 182.39 36.92 188.19 38.57 194 34.9 199.8 24.24 205.61 39.49 211.41 32.61 217.22 28.4 223.02 30.96 228.83 37.27 234.63 39.62 240.44 37.85 246.24 36.31 252.05 38.72 257.85 38.13"/>
      </g>
      <g stroke-width="0.3" fill="#000000" fill-opacity="0.000" class="geometry color_Delaware" stroke-dasharray="none" stroke="#F08031" id="img-00f3c8d0-51">
        <path fill="none" d="M37.26,32.58 L 43.06 38.97 48.87 43.41 54.67 36.55 60.48 41.22 66.28 38.94 72.09 41.98 77.89 41.45 83.7 38.28 89.5 34.75 95.31 35.15 101.11 34.79 106.92 35.96 112.72 42.06 118.53 37.11 124.33 33.65 130.14 31.41 135.94 28.47 141.75 37.1 147.55 40.87 153.36 40.84 159.16 40.67 164.97 37.46 170.78 36.66 176.58 34.63 182.39 38.36 188.19 44.79 194 36.5 199.8 28.78 205.61 40.19 211.41 36.88 217.22 30.48 223.02 32.9 228.83 41.08 234.63 44.72 240.44 44.4 246.24 41.72 252.05 49.82 257.85 45.96"/>
      </g>
      <g stroke-width="0.3" fill="#000000" fill-opacity="0.000" class="geometry color_D._C." stroke-dasharray="none" stroke="#32B44E" id="img-00f3c8d0-52">
        <path fill="none" d="M188.19,59.47 L 194 53.48 199.8 49.96 205.61 52.24 211.41 51.86 217.22 56.21 223.02 54.13 228.83 56.17 234.63 53.89 240.44 52.35 246.24 52.8 252.05 54.94 257.85 56.17"/>
      </g>
      <g stroke-width="0.3" fill="#000000" fill-opacity="0.000" class="geometry color_Connecticut" stroke-dasharray="none" stroke="#FF928B" id="img-00f3c8d0-53">
        <path fill="none" d="M37.26,27.87 L 43.06 37 48.87 36.94 54.67 36.37 60.48 38.59 66.28 37.24 72.09 38.15 77.89 37.92 83.7 38.86 89.5 28.38 95.31 32.97 101.11 31.69 106.92 30.6 112.72 38.87 118.53 36.89 124.33 28.7 130.14 27.36 135.94 35.37 141.75 37.5 147.55 42.48 153.36 40.06 159.16 39.51 164.97 37.35 170.78 34.22 176.58 29.38 182.39 40.16 188.19 48.88 194 39.45 199.8 32.17 205.61 36.26 211.41 34.88 217.22 31.1 223.02 36.28 228.83 39.84 234.63 43.46 240.44 43.25 246.24 41.06 252.05 44.76 257.85 43.21"/>
      </g>
      <g stroke-width="0.3" fill="#000000" fill-opacity="0.000" class="geometry color_Colorado" stroke-dasharray="none" stroke="#9E9E9E" id="img-00f3c8d0-54">
        <path fill="none" d="M66.28,36.24 L 72.09 33.98 77.89 33.42 83.7 25.16 89.5 59.79 95.31 41.99 101.11 33.48 106.92 38.2 112.72 44.31 118.53 45.88 124.33 30.64 130.14 27.04 135.94 28.36 141.75 41.99 147.55 45.04 153.36 37.07 159.16 35.76 164.97 39.51 170.78 31.28 176.58 31.79 182.39 34.86 188.19 44.98 194 35.04 199.8 29.21 205.61 34.32 211.41 30.45 217.22 29.12 223.02 35.46 228.83 39.17 234.63 37.43 240.44 35.28 246.24 36.42 252.05 40.62 257.85 39.51"/>
      </g>
      <g stroke-width="0.3" fill="#000000" fill-opacity="0.000" class="geometry color_California" stroke-dasharray="none" stroke="#F6A6FF" id="img-00f3c8d0-55">
        <path fill="none" d="M37.26,37.67 L 43.06 32.55 48.87 37.71 54.67 33.58 60.48 37.3 66.28 37.88 72.09 35.81 77.89 36.99 83.7 37.87 89.5 37.66 95.31 33.81 101.11 27.09 106.92 30.92 112.72 50.58 118.53 37.97 124.33 24.92 130.14 22.75 135.94 28.45 141.75 44.34 147.55 48.74 153.36 42.82 159.16 42.03 164.97 37.99 170.78 33.36 176.58 34.43 182.39 37.69 188.19 43.51 194 36.91 199.8 33.7 205.61 37.31 211.41 32.68 217.22 32.84 223.02 36.76 228.83 41.99 234.63 41.83 240.44 41.5 246.24 40.93 252.05 45.27 257.85 44.98"/>
      </g>
      <g stroke-width="0.3" fill="#000000" fill-opacity="0.000" class="geometry color_Arkansas" stroke-dasharray="none" stroke="#00E5B2" id="img-00f3c8d0-56">
        <path fill="none" d="M37.26,40.91 L 48.87 35.58 54.67 36.52 60.48 44.04 66.28 43.25 72.09 43.14 77.89 43.03 83.7 46.35 89.5 52.86 95.31 46.63 101.11 42.52 106.92 44.03 112.72 48.52 118.53 49.35 124.33 43.96 130.14 47.71 135.94 44.33 141.75 60.4 147.55 57.59 153.36 55.77 159.16 50.23 164.97 50.42 170.78 41.6 176.58 39.91 182.39 40.06 188.19 41.76 194 37.65 199.8 26.1 205.61 47.12 211.41 37.67 217.22 31.01 223.02 33.48 228.83 43.33 234.63 43.08 240.44 36.18 246.24 34.85 252.05 31.73 257.85 30.55"/>
      </g>
      <g stroke-width="0.3" fill="#000000" fill-opacity="0.000" class="geometry color_Arizona" stroke-dasharray="none" stroke="#FF5EA0" id="img-00f3c8d0-57">
        <path fill="none" d="M112.72,47.36 L 118.53 44.58 124.33 34.39 130.14 36.07 135.94 33.12 141.75 49.12 147.55 51.1 153.36 46.34 159.16 43.38 164.97 40.93 170.78 32.7 176.58 31.04 182.39 34.41 188.19 37.55 194 31.76 199.8 28.21 205.61 32.75 211.41 27.87 217.22 27.4 223.02 31.31 228.83 37.25 234.63 38.54 240.44 35.92 246.24 34.63 252.05 35.24 257.85 35.07"/>
      </g>
      <g stroke-width="0.3" fill="#000000" fill-opacity="0.000" class="geometry color_Alaska" stroke-dasharray="none" stroke="#D4CA3A" id="img-00f3c8d0-58">
        <path fill="none" d="M182.39,37.28 L 188.19 47.68 194 37.04 199.8 30.6 205.61 30.99 211.41 29.24 217.22 26.51 223.02 30.66 228.83 35.03 234.63 32.45 240.44 28.31 246.24 29.97 252.05 31.21 257.85 33.54"/>
      </g>
      <g stroke-width="0.3" fill="#000000" fill-opacity="0.000" class="geometry color_Alabama" stroke-dasharray="none" stroke="#00BFFF" id="img-00f3c8d0-59">
        <path fill="none" d="M37.26,42.52 L 48.87 37.08 54.67 35.89 60.48 44.02 66.28 44.92 72.09 44.54 77.89 48.46 83.7 54.97 89.5 49.69 95.31 45.88 101.11 54.13 106.92 52.27 112.72 56.9 118.53 54.56 124.33 45.44 130.14 51.64 135.94 38.73 141.75 59.64 147.55 60.56 153.36 59.73 159.16 57.32 164.97 31.98 170.78 46.97 176.58 43.15 182.39 42.25 188.19 16.43 194 39.32 199.8 23.39 205.61 41.9 211.41 37.46 217.22 30.99 223.02 31.9 228.83 35.77 234.63 35.71 240.44 33.27 246.24 29.95 252.05 31.2 257.85 31.01"/>
      </g>
    </g>
  </g>
</g>
  <g class="guide ylabels" font-size="2.82" font-family="'PT Sans Caption','Helvetica Neue','Helvetica',sans-serif" fill="#6C606B" id="img-00f3c8d0-60">
    <text x="19.74" y="68.72" text-anchor="end" dy="0.35em">-100</text>
    <text x="19.74" y="53.29" text-anchor="end" dy="0.35em">-50</text>
    <text x="19.74" y="37.86" text-anchor="end" dy="0.35em">0</text>
    <text x="19.74" y="22.43" text-anchor="end" dy="0.35em">50</text>
    <text x="19.74" y="7" text-anchor="end" dy="0.35em">100</text>
  </g>
  <g font-size="3.88" font-family="'PT Sans','Helvetica Neue','Helvetica',sans-serif" fill="#564A55" stroke="#000000" stroke-opacity="0.000" id="img-00f3c8d0-61">
    <text x="8.81" y="35.86" text-anchor="middle" dy="0.35em" transform="rotate(-90, 8.81, 37.86)">x1</text>
  </g>
</g>
<defs>
  <clipPath id="img-00f3c8d0-4">
  <path d="M20.75,5 L 315 5 315 70.72 20.75 70.72" />
</clipPath>
</defs>
</svg>
