<?xml version="1.0" encoding="UTF-8"?>
<svg xmlns="http://www.w3.org/2000/svg"
     xmlns:xlink="http://www.w3.org/1999/xlink"
     xmlns:gadfly="http://www.gadflyjl.org/ns"
     version="1.2"
     width="270mm" height="90mm" viewBox="0 0 270 90"
     stroke="none"
     fill="#000000"
     stroke-width="0.3"
     font-size="3.88"
>
<g class="plotroot xscalable yscalable" id="img-3063e03a-1">
  <g font-size="3.88" font-family="'PT Sans','Helvetica Neue','Helvetica',sans-serif" fill="#564A55" stroke="#000000" stroke-opacity="0.000" id="img-3063e03a-2">
    <text x="133.56" y="78.39" text-anchor="middle" dy="0.6em">Popular_Percent</text>
  </g>
  <g class="guide xlabels" font-size="2.82" font-family="'PT Sans Caption','Helvetica Neue','Helvetica',sans-serif" fill="#6C606B" id="img-3063e03a-3">
    <text x="21.63" y="71.72" text-anchor="middle" dy="0.6em">0</text>
    <text x="77.59" y="71.72" text-anchor="middle" dy="0.6em">20</text>
    <text x="133.56" y="71.72" text-anchor="middle" dy="0.6em">40</text>
    <text x="189.52" y="71.72" text-anchor="middle" dy="0.6em">60</text>
    <text x="245.48" y="71.72" text-anchor="middle" dy="0.6em">80</text>
  </g>
  <g class="guide colorkey" id="img-3063e03a-4">
    <g fill="#4C404B" font-size="2.82" font-family="'PT Sans','Helvetica Neue','Helvetica',sans-serif" id="img-3063e03a-5">
      <text x="251.29" y="37.86" dy="0.35em" id="img-3063e03a-6" class="color_Republican">Republican</text>
      <text x="251.29" y="41.48" dy="0.35em" id="img-3063e03a-7" class="color_Democratic">Democratic</text>
    </g>
    <g stroke="#000000" stroke-opacity="0.000" id="img-3063e03a-8">
      <rect x="248.48" y="36.95" width="1.81" height="1.81" id="img-3063e03a-9" class="color_Republican" fill="#FF0000"/>
      <rect x="248.48" y="40.58" width="1.81" height="1.81" id="img-3063e03a-10" class="color_Democratic" fill="#0000FF"/>
    </g>
    <g fill="#362A35" font-size="3.88" font-family="'PT Sans','Helvetica Neue','Helvetica',sans-serif" stroke="#000000" stroke-opacity="0.000" id="img-3063e03a-11">
      <text x="248.48" y="34.04" id="img-3063e03a-12">Party</text>
    </g>
  </g>
<g clip-path="url(#img-3063e03a-13)">
  <g id="img-3063e03a-14">
    <g pointer-events="visible" opacity="1" fill="#000000" fill-opacity="0.000" stroke="#000000" stroke-opacity="0.000" class="guide background" id="img-3063e03a-15">
      <rect x="19.63" y="5" width="227.85" height="65.72" id="img-3063e03a-16"/>
    </g>
    <g class="guide ygridlines xfixed" stroke-dasharray="0.5,0.5" stroke-width="0.2" stroke="#D0D0E0" id="img-3063e03a-17">
      <path fill="none" d="M19.63,68.72 L 247.48 68.72" id="img-3063e03a-18"/>
      <path fill="none" d="M19.63,48.14 L 247.48 48.14" id="img-3063e03a-19"/>
      <path fill="none" d="M19.63,27.57 L 247.48 27.57" id="img-3063e03a-20"/>
      <path fill="none" d="M19.63,7 L 247.48 7" id="img-3063e03a-21"/>
    </g>
    <g class="guide xgridlines yfixed" stroke-dasharray="0.5,0.5" stroke-width="0.2" stroke="#D0D0E0" id="img-3063e03a-22">
      <path fill="none" d="M21.63,5 L 21.63 70.72" id="img-3063e03a-23"/>
      <path fill="none" d="M77.59,5 L 77.59 70.72" id="img-3063e03a-24"/>
      <path fill="none" d="M133.56,5 L 133.56 70.72" id="img-3063e03a-25"/>
      <path fill="none" d="M189.52,5 L 189.52 70.72" id="img-3063e03a-26"/>
      <path fill="none" d="M245.48,5 L 245.48 70.72" id="img-3063e03a-27"/>
    </g>
    <g class="plotpanel" id="img-3063e03a-28">
      <g stroke-width="0.3" fill="#000000" fill-opacity="0.000" stroke-dasharray="none" id="img-3063e03a-29">
        <path fill="none" d="M22.8,65.68 L 23.02 65.61 23.25 65.55 23.48 65.48 23.7 65.42 23.93 65.35 24.15 65.29 24.38 65.22 24.61 65.16 24.83 65.09 25.06 65.03 25.29 64.96 25.51 64.9 25.74 64.83 25.96 64.77 26.19 64.7 26.42 64.64 26.64 64.57 26.87 64.51 27.1 64.44 27.32 64.38 27.55 64.31 27.77 64.25 28 64.18 28.23 64.12 28.45 64.05 28.68 63.99 28.91 63.92 29.13 63.86 29.36 63.79 29.58 63.73 29.81 63.66 30.04 63.6 30.26 63.53 30.49 63.47 30.72 63.4 30.94 63.34 31.17 63.27 31.39 63.21 31.62 63.14 31.85 63.08 32.07 63.01 32.3 62.95 32.53 62.88 32.75 62.82 32.98 62.75 33.2 62.69 33.43 62.62 33.66 62.56 33.88 62.49 34.11 62.43 34.33 62.36 34.56 62.3 34.79 62.23 35.01 62.17 35.24 62.1 35.47 62.04 35.69 61.97 35.92 61.91 36.14 61.84 36.37 61.78 36.6 61.71 36.82 61.65 37.05 61.59 37.28 61.52 37.5 61.46 37.73 61.39 37.95 61.33 38.18 61.26 38.41 61.2 38.63 61.13 38.86 61.07 39.09 61 39.31 60.94 39.54 60.87 39.76 60.81 39.99 60.74 40.22 60.68 40.44 60.61 40.67 60.55 40.9 60.48 41.12 60.42 41.35 60.35 41.57 60.29 41.8 60.22 42.03 60.16 42.25 60.09 42.48 60.03 42.71 59.96 42.93 59.9 43.16 59.83 43.38 59.77 43.61 59.7 43.84 59.64 44.06 59.57 44.29 59.51 44.52 59.44 44.74 59.38 44.97 59.31 45.19 59.25 45.42 59.18 45.65 59.12 45.87 59.05 46.1 58.99 46.32 58.92 46.55 58.86 46.78 58.79 47 58.73 47.23 58.66 47.46 58.6 47.68 58.53 47.91 58.47 48.13 58.4 48.36 58.34 48.59 58.27 48.81 58.21 49.04 58.14 49.27 58.08 49.49 58.01 49.72 57.95 49.94 57.88 50.17 57.82 50.4 57.75 50.62 57.69 50.85 57.62 51.08 57.56 51.3 57.49 51.53 57.43 51.75 57.37 51.98 57.3 52.21 57.24 52.43 57.17 52.66 57.11 52.89 57.04 53.11 56.98 53.34 56.91 53.56 56.85 53.79 56.78 54.02 56.72 54.24 56.65 54.47 56.59 54.7 56.52 54.92 56.46 55.15 56.39 55.37 56.33 55.6 56.26 55.83 56.2 56.05 56.13 56.28 56.07 56.51 56 56.73 55.94 56.96 55.87 57.18 55.81 57.41 55.74 57.64 55.68 57.86 55.61 58.09 55.55 58.31 55.48 58.54 55.42 58.77 55.35 58.99 55.29 59.22 55.22 59.45 55.16 59.67 55.09 59.9 55.03 60.12 54.96 60.35 54.9 60.58 54.83 60.8 54.77 61.03 54.7 61.26 54.64 61.48 54.57 61.71 54.51 61.93 54.44 62.16 54.38 62.39 54.31 62.61 54.25 62.84 54.18 63.07 54.12 63.29 54.05 63.52 53.99 63.74 53.92 63.97 53.86 64.2 53.79 64.42 53.73 64.65 53.66 64.88 53.6 65.1 53.53 65.33 53.47 65.55 53.4 65.78 53.34 66.01 53.27 66.23 53.21 66.46 53.15 66.69 53.08 66.91 53.02 67.14 52.95 67.36 52.89 67.59 52.82 67.82 52.76 68.04 52.69 68.27 52.63 68.5 52.56 68.72 52.5 68.95 52.43 69.17 52.37 69.4 52.3 69.63 52.24 69.85 52.17 70.08 52.11 70.3 52.04 70.53 51.98 70.76 51.91 70.98 51.85 71.21 51.78 71.44 51.72 71.66 51.65 71.89 51.59 72.11 51.52 72.34 51.46 72.57 51.39 72.79 51.33 73.02 51.26 73.25 51.2 73.47 51.13 73.7 51.07 73.92 51 74.15 50.94 74.38 50.87 74.6 50.81 74.83 50.74 75.06 50.68 75.28 50.61 75.51 50.55 75.73 50.48 75.96 50.42 76.19 50.35 76.41 50.29 76.64 50.22 76.87 50.16 77.09 50.09 77.32 50.03 77.54 49.96 77.77 49.9 78 49.83 78.22 49.77 78.45 49.7 78.68 49.64 78.9 49.57 79.13 49.51 79.35 49.44 79.58 49.38 79.81 49.31 80.03 49.25 80.26 49.18 80.49 49.12 80.71 49.05 80.94 48.99 81.16 48.93 81.39 48.86 81.62 48.8 81.84 48.73 82.07 48.67 82.29 48.6 82.52 48.54 82.75 48.47 82.97 48.41 83.2 48.34 83.43 48.28 83.65 48.21 83.88 48.15 84.1 48.08 84.33 48.02 84.56 47.95 84.78 47.89 85.01 47.82 85.24 47.76 85.46 47.69 85.69 47.63 85.91 47.56 86.14 47.5 86.37 47.43 86.59 47.37 86.82 47.3 87.05 47.24 87.27 47.17 87.5 47.11 87.72 47.04 87.95 46.98 88.18 46.91 88.4 46.85 88.63 46.78 88.86 46.72 89.08 46.65 89.31 46.59 89.53 46.52 89.76 46.46 89.99 46.39 90.21 46.33 90.44 46.26 90.67 46.2 90.89 46.13 91.12 46.07 91.34 46 91.57 45.94 91.8 45.87 92.02 45.81 92.25 45.74 92.48 45.68 92.7 45.61 92.93 45.55 93.15 45.48 93.38 45.42 93.61 45.35 93.83 45.29 94.06 45.22 94.28 45.16 94.51 45.09 94.74 45.03 94.96 44.96 95.19 44.9 95.42 44.83 95.64 44.77 95.87 44.71 96.09 44.64 96.32 44.58 96.55 44.51 96.77 44.45 97 44.38 97.23 44.32 97.45 44.25 97.68 44.19 97.9 44.12 98.13 44.06 98.36 43.99 98.58 43.93 98.81 43.86 99.04 43.8 99.26 43.73 99.49 43.67 99.71 43.6 99.94 43.54 100.17 43.47 100.39 43.41 100.62 43.34 100.85 43.28 101.07 43.21 101.3 43.15 101.52 43.08 101.75 43.02 101.98 42.95 102.2 42.89 102.43 42.82 102.66 42.76 102.88 42.69 103.11 42.63 103.33 42.56 103.56 42.5 103.79 42.43 104.01 42.37 104.24 42.3 104.47 42.24 104.69 42.17 104.92 42.11 105.14 42.04 105.37 41.98 105.6 41.91 105.82 41.85 106.05 41.78 106.27 41.72 106.5 41.65 106.73 41.59 106.95 41.52 107.18 41.46 107.41 41.39 107.63 41.33 107.86 41.26 108.08 41.2 108.31 41.13 108.54 41.07 108.76 41 108.99 40.94 109.22 40.87 109.44 40.81 109.67 40.74 109.89 40.68 110.12 40.62 110.35 40.55 110.57 40.49 110.8 40.42 111.03 40.36 111.25 40.29 111.48 40.23 111.7 40.16 111.93 40.1 112.16 40.03 112.38 39.97 112.61 39.9 112.84 39.84 113.06 39.77 113.29 39.71 113.51 39.64 113.74 39.58 113.97 39.51 114.19 39.45 114.42 39.38 114.65 39.32 114.87 39.25 115.1 39.19 115.32 39.12 115.55 39.06 115.78 38.99 116 38.93 116.23 38.86 116.46 38.8 116.68 38.73 116.91 38.67 117.13 38.6 117.36 38.54 117.59 38.47 117.81 38.41 118.04 38.34 118.26 38.28 118.49 38.21 118.72 38.15 118.94 38.08 119.17 38.02 119.4 37.95 119.62 37.89 119.85 37.82 120.07 37.76 120.3 37.69 120.53 37.63 120.75 37.56 120.98 37.5 121.21 37.43 121.43 37.37 121.66 37.3 121.88 37.24 122.11 37.17 122.34 37.11 122.56 37.04 122.79 36.98 123.02 36.91 123.24 36.85 123.47 36.78 123.69 36.72 123.92 36.65 124.15 36.59 124.37 36.52 124.6 36.46 124.83 36.4 125.05 36.33 125.28 36.27 125.5 36.2 125.73 36.14 125.96 36.07 126.18 36.01 126.41 35.94 126.64 35.88 126.86 35.81 127.09 35.75 127.31 35.68 127.54 35.62 127.77 35.55 127.99 35.49 128.22 35.42 128.45 35.36 128.67 35.29 128.9 35.23 129.12 35.16 129.35 35.1 129.58 35.03 129.8 34.97 130.03 34.9 130.25 34.84 130.48 34.77 130.71 34.71 130.93 34.64 131.16 34.58 131.39 34.51 131.61 34.45 131.84 34.38 132.06 34.32 132.29 34.25 132.52 34.19 132.74 34.12 132.97 34.06 133.2 33.99 133.42 33.93 133.65 33.86 133.87 33.8 134.1 33.73 134.33 33.67 134.55 33.6 134.78 33.54 135.01 33.47 135.23 33.41 135.46 33.34 135.68 33.28 135.91 33.21 136.14 33.15 136.36 33.08 136.59 33.02 136.82 32.95 137.04 32.89 137.27 32.82 137.49 32.76 137.72 32.69 137.95 32.63 138.17 32.56 138.4 32.5 138.63 32.43 138.85 32.37 139.08 32.3 139.3 32.24 139.53 32.18 139.76 32.11 139.98 32.05 140.21 31.98 140.44 31.92 140.66 31.85 140.89 31.79 141.11 31.72 141.34 31.66 141.57 31.59 141.79 31.53 142.02 31.46 142.24 31.4 142.47 31.33 142.7 31.27 142.92 31.2 143.15 31.14 143.38 31.07 143.6 31.01 143.83 30.94 144.05 30.88 144.28 30.81 144.51 30.75 144.73 30.68 144.96 30.62 145.19 30.55 145.41 30.49 145.64 30.42 145.86 30.36 146.09 30.29 146.32 30.23 146.54 30.16 146.77 30.1 147 30.03 147.22 29.97 147.45 29.9 147.67 29.84 147.9 29.77 148.13 29.71 148.35 29.64 148.58 29.58 148.81 29.51 149.03 29.45 149.26 29.38 149.48 29.32 149.71 29.25 149.94 29.19 150.16 29.12 150.39 29.06 150.62 28.99 150.84 28.93 151.07 28.86 151.29 28.8 151.52 28.73 151.75 28.67 151.97 28.6 152.2 28.54 152.43 28.47 152.65 28.41 152.88 28.34 153.1 28.28 153.33 28.21 153.56 28.15 153.78 28.08 154.01 28.02 154.23 27.96 154.46 27.89 154.69 27.83 154.91 27.76 155.14 27.7 155.37 27.63 155.59 27.57 155.82 27.5 156.04 27.44 156.27 27.37 156.5 27.31 156.72 27.24 156.95 27.18 157.18 27.11 157.4 27.05 157.63 26.98 157.85 26.92 158.08 26.85 158.31 26.79 158.53 26.72 158.76 26.66 158.99 26.59 159.21 26.53 159.44 26.46 159.66 26.4 159.89 26.33 160.12 26.27 160.34 26.2 160.57 26.14 160.8 26.07 161.02 26.01 161.25 25.94 161.47 25.88 161.7 25.81 161.93 25.75 162.15 25.68 162.38 25.62 162.61 25.55 162.83 25.49 163.06 25.42 163.28 25.36 163.51 25.29 163.74 25.23 163.96 25.16 164.19 25.1 164.42 25.03 164.64 24.97 164.87 24.9 165.09 24.84 165.32 24.77 165.55 24.71 165.77 24.64 166 24.58 166.22 24.51 166.45 24.45 166.68 24.38 166.9 24.32 167.13 24.25 167.36 24.19 167.58 24.12 167.81 24.06 168.03 23.99 168.26 23.93 168.49 23.86 168.71 23.8 168.94 23.74 169.17 23.67 169.39 23.61 169.62 23.54 169.84 23.48 170.07 23.41 170.3 23.35 170.52 23.28 170.75 23.22 170.98 23.15 171.2 23.09 171.43 23.02 171.65 22.96 171.88 22.89 172.11 22.83 172.33 22.76 172.56 22.7 172.79 22.63 173.01 22.57 173.24 22.5 173.46 22.44 173.69 22.37 173.92 22.31 174.14 22.24 174.37 22.18 174.6 22.11 174.82 22.05 175.05 21.98 175.27 21.92 175.5 21.85 175.73 21.79 175.95 21.72 176.18 21.66 176.4 21.59 176.63 21.53 176.86 21.46 177.08 21.4 177.31 21.33 177.54 21.27 177.76 21.2 177.99 21.14 178.21 21.07 178.44 21.01 178.67 20.94 178.89 20.88 179.12 20.81 179.35 20.75 179.57 20.68 179.8 20.62 180.02 20.55 180.25 20.49 180.48 20.42 180.7 20.36 180.93 20.29 181.16 20.23 181.38 20.16 181.61 20.1 181.83 20.03 182.06 19.97 182.29 19.9 182.51 19.84 182.74 19.77 182.97 19.71 183.19 19.64 183.42 19.58 183.64 19.52 183.87 19.45 184.1 19.39 184.32 19.32 184.55 19.26 184.78 19.19 185 19.13 185.23 19.06 185.45 19 185.68 18.93 185.91 18.87 186.13 18.8 186.36 18.74 186.59 18.67 186.81 18.61 187.04 18.54 187.26 18.48 187.49 18.41 187.72 18.35 187.94 18.28 188.17 18.22 188.39 18.15 188.62 18.09 188.85 18.02 189.07 17.96 189.3 17.89 189.53 17.83 189.75 17.76 189.98 17.7 190.2 17.63 190.43 17.57 190.66 17.5 190.88 17.44 191.11 17.37 191.34 17.31 191.56 17.24 191.79 17.18 192.01 17.11 192.24 17.05" id="img-3063e03a-30" stroke="#0000FF" class="geometry color_Democratic"/>
        <path fill="none" d="M26.69,65.09 L 26.91 65.02 27.13 64.96 27.35 64.89 27.57 64.82 27.79 64.76 28.01 64.69 28.23 64.62 28.45 64.56 28.67 64.49 28.89 64.42 29.11 64.36 29.33 64.29 29.55 64.22 29.77 64.15 29.99 64.09 30.21 64.02 30.43 63.95 30.65 63.89 30.86 63.82 31.08 63.75 31.3 63.69 31.52 63.62 31.74 63.55 31.96 63.49 32.18 63.42 32.4 63.35 32.62 63.29 32.84 63.22 33.06 63.15 33.28 63.09 33.5 63.02 33.72 62.95 33.94 62.89 34.16 62.82 34.38 62.75 34.6 62.69 34.82 62.62 35.04 62.55 35.26 62.49 35.48 62.42 35.7 62.35 35.92 62.29 36.14 62.22 36.36 62.15 36.57 62.09 36.79 62.02 37.01 61.95 37.23 61.88 37.45 61.82 37.67 61.75 37.89 61.68 38.11 61.62 38.33 61.55 38.55 61.48 38.77 61.42 38.99 61.35 39.21 61.28 39.43 61.22 39.65 61.15 39.87 61.08 40.09 61.02 40.31 60.95 40.53 60.88 40.75 60.82 40.97 60.75 41.19 60.68 41.41 60.62 41.63 60.55 41.85 60.48 42.06 60.42 42.28 60.35 42.5 60.28 42.72 60.22 42.94 60.15 43.16 60.08 43.38 60.02 43.6 59.95 43.82 59.88 44.04 59.81 44.26 59.75 44.48 59.68 44.7 59.61 44.92 59.55 45.14 59.48 45.36 59.41 45.58 59.35 45.8 59.28 46.02 59.21 46.24 59.15 46.46 59.08 46.68 59.01 46.9 58.95 47.12 58.88 47.34 58.81 47.56 58.75 47.77 58.68 47.99 58.61 48.21 58.55 48.43 58.48 48.65 58.41 48.87 58.35 49.09 58.28 49.31 58.21 49.53 58.15 49.75 58.08 49.97 58.01 50.19 57.95 50.41 57.88 50.63 57.81 50.85 57.75 51.07 57.68 51.29 57.61 51.51 57.54 51.73 57.48 51.95 57.41 52.17 57.34 52.39 57.28 52.61 57.21 52.83 57.14 53.05 57.08 53.27 57.01 53.48 56.94 53.7 56.88 53.92 56.81 54.14 56.74 54.36 56.68 54.58 56.61 54.8 56.54 55.02 56.48 55.24 56.41 55.46 56.34 55.68 56.28 55.9 56.21 56.12 56.14 56.34 56.08 56.56 56.01 56.78 55.94 57 55.88 57.22 55.81 57.44 55.74 57.66 55.68 57.88 55.61 58.1 55.54 58.32 55.48 58.54 55.41 58.76 55.34 58.97 55.27 59.19 55.21 59.41 55.14 59.63 55.07 59.85 55.01 60.07 54.94 60.29 54.87 60.51 54.81 60.73 54.74 60.95 54.67 61.17 54.61 61.39 54.54 61.61 54.47 61.83 54.41 62.05 54.34 62.27 54.27 62.49 54.21 62.71 54.14 62.93 54.07 63.15 54.01 63.37 53.94 63.59 53.87 63.81 53.81 64.03 53.74 64.25 53.67 64.47 53.61 64.68 53.54 64.9 53.47 65.12 53.41 65.34 53.34 65.56 53.27 65.78 53.2 66 53.14 66.22 53.07 66.44 53 66.66 52.94 66.88 52.87 67.1 52.8 67.32 52.74 67.54 52.67 67.76 52.6 67.98 52.54 68.2 52.47 68.42 52.4 68.64 52.34 68.86 52.27 69.08 52.2 69.3 52.14 69.52 52.07 69.74 52 69.96 51.94 70.17 51.87 70.39 51.8 70.61 51.74 70.83 51.67 71.05 51.6 71.27 51.54 71.49 51.47 71.71 51.4 71.93 51.34 72.15 51.27 72.37 51.2 72.59 51.14 72.81 51.07 73.03 51 73.25 50.93 73.47 50.87 73.69 50.8 73.91 50.73 74.13 50.67 74.35 50.6 74.57 50.53 74.79 50.47 75.01 50.4 75.23 50.33 75.45 50.27 75.67 50.2 75.88 50.13 76.1 50.07 76.32 50 76.54 49.93 76.76 49.87 76.98 49.8 77.2 49.73 77.42 49.67 77.64 49.6 77.86 49.53 78.08 49.47 78.3 49.4 78.52 49.33 78.74 49.27 78.96 49.2 79.18 49.13 79.4 49.07 79.62 49 79.84 48.93 80.06 48.87 80.28 48.8 80.5 48.73 80.72 48.66 80.94 48.6 81.16 48.53 81.38 48.46 81.59 48.4 81.81 48.33 82.03 48.26 82.25 48.2 82.47 48.13 82.69 48.06 82.91 48 83.13 47.93 83.35 47.86 83.57 47.8 83.79 47.73 84.01 47.66 84.23 47.6 84.45 47.53 84.67 47.46 84.89 47.4 85.11 47.33 85.33 47.26 85.55 47.2 85.77 47.13 85.99 47.06 86.21 47 86.43 46.93 86.65 46.86 86.87 46.8 87.08 46.73 87.3 46.66 87.52 46.59 87.74 46.53 87.96 46.46 88.18 46.39 88.4 46.33 88.62 46.26 88.84 46.19 89.06 46.13 89.28 46.06 89.5 45.99 89.72 45.93 89.94 45.86 90.16 45.79 90.38 45.73 90.6 45.66 90.82 45.59 91.04 45.53 91.26 45.46 91.48 45.39 91.7 45.33 91.92 45.26 92.14 45.19 92.36 45.13 92.58 45.06 92.79 44.99 93.01 44.93 93.23 44.86 93.45 44.79 93.67 44.73 93.89 44.66 94.11 44.59 94.33 44.53 94.55 44.46 94.77 44.39 94.99 44.32 95.21 44.26 95.43 44.19 95.65 44.12 95.87 44.06 96.09 43.99 96.31 43.92 96.53 43.86 96.75 43.79 96.97 43.72 97.19 43.66 97.41 43.59 97.63 43.52 97.85 43.46 98.07 43.39 98.28 43.32 98.5 43.26 98.72 43.19 98.94 43.12 99.16 43.06 99.38 42.99 99.6 42.92 99.82 42.86 100.04 42.79 100.26 42.72 100.48 42.66 100.7 42.59 100.92 42.52 101.14 42.46 101.36 42.39 101.58 42.32 101.8 42.26 102.02 42.19 102.24 42.12 102.46 42.05 102.68 41.99 102.9 41.92 103.12 41.85 103.34 41.79 103.56 41.72 103.78 41.65 103.99 41.59 104.21 41.52 104.43 41.45 104.65 41.39 104.87 41.32 105.09 41.25 105.31 41.19 105.53 41.12 105.75 41.05 105.97 40.99 106.19 40.92 106.41 40.85 106.63 40.79 106.85 40.72 107.07 40.65 107.29 40.59 107.51 40.52 107.73 40.45 107.95 40.39 108.17 40.32 108.39 40.25 108.61 40.19 108.83 40.12 109.05 40.05 109.27 39.98 109.49 39.92 109.7 39.85 109.92 39.78 110.14 39.72 110.36 39.65 110.58 39.58 110.8 39.52 111.02 39.45 111.24 39.38 111.46 39.32 111.68 39.25 111.9 39.18 112.12 39.12 112.34 39.05 112.56 38.98 112.78 38.92 113 38.85 113.22 38.78 113.44 38.72 113.66 38.65 113.88 38.58 114.1 38.52 114.32 38.45 114.54 38.38 114.76 38.32 114.98 38.25 115.19 38.18 115.41 38.12 115.63 38.05 115.85 37.98 116.07 37.92 116.29 37.85 116.51 37.78 116.73 37.71 116.95 37.65 117.17 37.58 117.39 37.51 117.61 37.45 117.83 37.38 118.05 37.31 118.27 37.25 118.49 37.18 118.71 37.11 118.93 37.05 119.15 36.98 119.37 36.91 119.59 36.85 119.81 36.78 120.03 36.71 120.25 36.65 120.47 36.58 120.69 36.51 120.9 36.45 121.12 36.38 121.34 36.31 121.56 36.25 121.78 36.18 122 36.11 122.22 36.05 122.44 35.98 122.66 35.91 122.88 35.85 123.1 35.78 123.32 35.71 123.54 35.65 123.76 35.58 123.98 35.51 124.2 35.44 124.42 35.38 124.64 35.31 124.86 35.24 125.08 35.18 125.3 35.11 125.52 35.04 125.74 34.98 125.96 34.91 126.18 34.84 126.39 34.78 126.61 34.71 126.83 34.64 127.05 34.58 127.27 34.51 127.49 34.44 127.71 34.38 127.93 34.31 128.15 34.24 128.37 34.18 128.59 34.11 128.81 34.04 129.03 33.98 129.25 33.91 129.47 33.84 129.69 33.78 129.91 33.71 130.13 33.64 130.35 33.58 130.57 33.51 130.79 33.44 131.01 33.37 131.23 33.31 131.45 33.24 131.67 33.17 131.89 33.11 132.1 33.04 132.32 32.97 132.54 32.91 132.76 32.84 132.98 32.77 133.2 32.71 133.42 32.64 133.64 32.57 133.86 32.51 134.08 32.44 134.3 32.37 134.52 32.31 134.74 32.24 134.96 32.17 135.18 32.11 135.4 32.04 135.62 31.97 135.84 31.91 136.06 31.84 136.28 31.77 136.5 31.71 136.72 31.64 136.94 31.57 137.16 31.51 137.38 31.44 137.6 31.37 137.81 31.31 138.03 31.24 138.25 31.17 138.47 31.1 138.69 31.04 138.91 30.97 139.13 30.9 139.35 30.84 139.57 30.77 139.79 30.7 140.01 30.64 140.23 30.57 140.45 30.5 140.67 30.44 140.89 30.37 141.11 30.3 141.33 30.24 141.55 30.17 141.77 30.1 141.99 30.04 142.21 29.97 142.43 29.9 142.65 29.84 142.87 29.77 143.09 29.7 143.3 29.64 143.52 29.57 143.74 29.5 143.96 29.44 144.18 29.37 144.4 29.3 144.62 29.24 144.84 29.17 145.06 29.1 145.28 29.04 145.5 28.97 145.72 28.9 145.94 28.83 146.16 28.77 146.38 28.7 146.6 28.63 146.82 28.57 147.04 28.5 147.26 28.43 147.48 28.37 147.7 28.3 147.92 28.23 148.14 28.17 148.36 28.1 148.58 28.03 148.8 27.97 149.01 27.9 149.23 27.83 149.45 27.77 149.67 27.7 149.89 27.63 150.11 27.57 150.33 27.5 150.55 27.43 150.77 27.37 150.99 27.3 151.21 27.23 151.43 27.17 151.65 27.1 151.87 27.03 152.09 26.97 152.31 26.9 152.53 26.83 152.75 26.76 152.97 26.7 153.19 26.63 153.41 26.56 153.63 26.5 153.85 26.43 154.07 26.36 154.29 26.3 154.5 26.23 154.72 26.16 154.94 26.1 155.16 26.03 155.38 25.96 155.6 25.9 155.82 25.83 156.04 25.76 156.26 25.7 156.48 25.63 156.7 25.56 156.92 25.5 157.14 25.43 157.36 25.36 157.58 25.3 157.8 25.23 158.02 25.16 158.24 25.1 158.46 25.03 158.68 24.96 158.9 24.9 159.12 24.83 159.34 24.76 159.56 24.7 159.78 24.63 160 24.56 160.21 24.49 160.43 24.43 160.65 24.36 160.87 24.29 161.09 24.23 161.31 24.16 161.53 24.09 161.75 24.03 161.97 23.96 162.19 23.89 162.41 23.83 162.63 23.76 162.85 23.69 163.07 23.63 163.29 23.56 163.51 23.49 163.73 23.43 163.95 23.36 164.17 23.29 164.39 23.23 164.61 23.16 164.83 23.09 165.05 23.03 165.27 22.96 165.49 22.89 165.71 22.83 165.92 22.76 166.14 22.69 166.36 22.63 166.58 22.56 166.8 22.49 167.02 22.43 167.24 22.36 167.46 22.29 167.68 22.22 167.9 22.16 168.12 22.09 168.34 22.02 168.56 21.96 168.78 21.89 169 21.82 169.22 21.76 169.44 21.69 169.66 21.62 169.88 21.56 170.1 21.49 170.32 21.42 170.54 21.36 170.76 21.29 170.98 21.22 171.2 21.16 171.41 21.09 171.63 21.02 171.85 20.96 172.07 20.89 172.29 20.82 172.51 20.76 172.73 20.69 172.95 20.62 173.17 20.56 173.39 20.49 173.61 20.42 173.83 20.36 174.05 20.29 174.27 20.22 174.49 20.15 174.71 20.09 174.93 20.02 175.15 19.95 175.37 19.89 175.59 19.82 175.81 19.75 176.03 19.69 176.25 19.62 176.47 19.55 176.69 19.49 176.91 19.42 177.12 19.35 177.34 19.29 177.56 19.22 177.78 19.15 178 19.09 178.22 19.02 178.44 18.95 178.66 18.89 178.88 18.82 179.1 18.75 179.32 18.69 179.54 18.62 179.76 18.55 179.98 18.49 180.2 18.42 180.42 18.35 180.64 18.29 180.86 18.22 181.08 18.15 181.3 18.09 181.52 18.02 181.74 17.95 181.96 17.88 182.18 17.82 182.4 17.75 182.61 17.68 182.83 17.62 183.05 17.55 183.27 17.48 183.49 17.42 183.71 17.35 183.93 17.28 184.15 17.22 184.37 17.15 184.59 17.08 184.81 17.02 185.03 16.95 185.25 16.88 185.47 16.82 185.69 16.75 185.91 16.68 186.13 16.62 186.35 16.55 186.57 16.48 186.79 16.42 187.01 16.35 187.23 16.28 187.45 16.22 187.67 16.15 187.89 16.08 188.11 16.02 188.32 15.95 188.54 15.88 188.76 15.82 188.98 15.75 189.2 15.68 189.42 15.61 189.64 15.55 189.86 15.48 190.08 15.41 190.3 15.35 190.52 15.28 190.74 15.21 190.96 15.15 191.18 15.08" id="img-3063e03a-31" stroke="#FF0000" class="geometry color_Republican"/>
      </g>
      <g class="geometry" id="img-3063e03a-32">
        <g stroke-width="0.3" id="img-3063e03a-33">
          <use xlink:href="#img-3063e03a-34" x="26.69" y="48.14" id="img-3063e03a-35" stroke="#FFFFFF" class="color_Republican" fill="#FF0000"/>
          <use xlink:href="#img-3063e03a-34" x="114.22" y="32.3" id="img-3063e03a-36" stroke="#FFFFFF" class="color_Republican" fill="#FF0000"/>
          <use xlink:href="#img-3063e03a-34" x="132.57" y="23.7" id="img-3063e03a-37" stroke="#FFFFFF" class="color_Republican" fill="#FF0000"/>
          <use xlink:href="#img-3063e03a-34" x="175.62" y="10.71" id="img-3063e03a-38" stroke="#FFFFFF" class="color_Republican" fill="#FF0000"/>
          <use xlink:href="#img-3063e03a-34" x="168.99" y="18.2" id="img-3063e03a-39" stroke="#FFFFFF" class="color_Republican" fill="#FF0000"/>
          <use xlink:href="#img-3063e03a-34" x="177.16" y="14.71" id="img-3063e03a-40" stroke="#FFFFFF" class="color_Republican" fill="#FF0000"/>
          <use xlink:href="#img-3063e03a-34" x="155.71" y="27.52" id="img-3063e03a-41" stroke="#FFFFFF" class="color_Republican" fill="#FF0000"/>
          <use xlink:href="#img-3063e03a-34" x="156.82" y="24.28" id="img-3063e03a-42" stroke="#FFFFFF" class="color_Republican" fill="#FF0000"/>
          <use xlink:href="#img-3063e03a-34" x="156.72" y="29.47" id="img-3063e03a-43" stroke="#FFFFFF" class="color_Republican" fill="#FF0000"/>
          <use xlink:href="#img-3063e03a-34" x="155.38" y="24.24" id="img-3063e03a-44" stroke="#FFFFFF" class="color_Republican" fill="#FF0000"/>
          <use xlink:href="#img-3063e03a-34" x="141.99" y="34.71" id="img-3063e03a-45" stroke="#FFFFFF" class="color_Republican" fill="#FF0000"/>
          <use xlink:href="#img-3063e03a-34" x="164.4" y="23.2" id="img-3063e03a-46" stroke="#FFFFFF" class="color_Republican" fill="#FF0000"/>
          <use xlink:href="#img-3063e03a-34" x="166.19" y="21.27" id="img-3063e03a-47" stroke="#FFFFFF" class="color_Republican" fill="#FF0000"/>
          <use xlink:href="#img-3063e03a-34" x="179.49" y="19.1" id="img-3063e03a-48" stroke="#FFFFFF" class="color_Republican" fill="#FF0000"/>
          <use xlink:href="#img-3063e03a-34" x="165.93" y="20.8" id="img-3063e03a-49" stroke="#FFFFFF" class="color_Republican" fill="#FF0000"/>
          <use xlink:href="#img-3063e03a-34" x="86.5" y="47.52" id="img-3063e03a-50" stroke="#FFFFFF" class="color_Republican" fill="#FF0000"/>
          <use xlink:href="#img-3063e03a-34" x="150.66" y="28.46" id="img-3063e03a-51" stroke="#FFFFFF" class="color_Republican" fill="#FF0000"/>
          <use xlink:href="#img-3063e03a-34" x="190.49" y="16.84" id="img-3063e03a-52" stroke="#FFFFFF" class="color_Republican" fill="#FF0000"/>
          <use xlink:href="#img-3063e03a-34" x="172.82" y="18.54" id="img-3063e03a-53" stroke="#FFFFFF" class="color_Republican" fill="#FF0000"/>
          <use xlink:href="#img-3063e03a-34" x="184.53" y="13.74" id="img-3063e03a-54" stroke="#FFFFFF" class="color_Republican" fill="#FF0000"/>
          <use xlink:href="#img-3063e03a-34" x="132.57" y="43.57" id="img-3063e03a-55" stroke="#FFFFFF" class="color_Republican" fill="#FF0000"/>
          <use xlink:href="#img-3063e03a-34" x="123.88" y="47.52" id="img-3063e03a-56" stroke="#FFFFFF" class="color_Republican" fill="#FF0000"/>
          <use xlink:href="#img-3063e03a-34" x="146.92" y="41.79" id="img-3063e03a-57" stroke="#FFFFFF" class="color_Republican" fill="#FF0000"/>
          <use xlink:href="#img-3063e03a-34" x="150.04" y="40.47" id="img-3063e03a-58" stroke="#FFFFFF" class="color_Republican" fill="#FF0000"/>
          <use xlink:href="#img-3063e03a-34" x="147.74" y="33.5" id="img-3063e03a-59" stroke="#FFFFFF" class="color_Republican" fill="#FF0000"/>
          <use xlink:href="#img-3063e03a-34" x="176.03" y="13.9" id="img-3063e03a-60" stroke="#FFFFFF" class="color_Republican" fill="#FF0000"/>
          <use xlink:href="#img-3063e03a-34" x="182.15" y="12.67" id="img-3063e03a-61" stroke="#FFFFFF" class="color_Republican" fill="#FF0000"/>
          <use xlink:href="#img-3063e03a-34" x="160.28" y="31.36" id="img-3063e03a-62" stroke="#FFFFFF" class="color_Republican" fill="#FF0000"/>
          <use xlink:href="#img-3063e03a-34" x="129.27" y="44.17" id="img-3063e03a-63" stroke="#FFFFFF" class="color_Republican" fill="#FF0000"/>
          <use xlink:href="#img-3063e03a-34" x="143.13" y="25.12" id="img-3063e03a-64" stroke="#FFFFFF" class="color_Republican" fill="#FF0000"/>
          <use xlink:href="#img-3063e03a-34" x="191.4" y="8.38" id="img-3063e03a-65" stroke="#FFFFFF" class="color_Republican" fill="#FF0000"/>
          <use xlink:href="#img-3063e03a-34" x="155.97" y="29.76" id="img-3063e03a-66" stroke="#FFFFFF" class="color_Republican" fill="#FF0000"/>
          <use xlink:href="#img-3063e03a-34" x="163.63" y="10.75" id="img-3063e03a-67" stroke="#FFFFFF" class="color_Republican" fill="#FF0000"/>
          <use xlink:href="#img-3063e03a-34" x="186.09" y="7.99" id="img-3063e03a-68" stroke="#FFFFFF" class="color_Republican" fill="#FF0000"/>
          <use xlink:href="#img-3063e03a-34" x="170.97" y="15.5" id="img-3063e03a-69" stroke="#FFFFFF" class="color_Republican" fill="#FF0000"/>
          <use xlink:href="#img-3063e03a-34" x="126.41" y="35.3" id="img-3063e03a-70" stroke="#FFFFFF" class="color_Republican" fill="#FF0000"/>
          <use xlink:href="#img-3063e03a-34" x="135.56" y="35.98" id="img-3063e03a-71" stroke="#FFFFFF" class="color_Republican" fill="#FF0000"/>
          <use xlink:href="#img-3063e03a-34" x="155.56" y="27.38" id="img-3063e03a-72" stroke="#FFFFFF" class="color_Republican" fill="#FF0000"/>
          <use xlink:href="#img-3063e03a-34" x="163.57" y="26.23" id="img-3063e03a-73" stroke="#FFFFFF" class="color_Republican" fill="#FF0000"/>
          <use xlink:href="#img-3063e03a-34" x="149.22" y="34.91" id="img-3063e03a-74" stroke="#FFFFFF" class="color_Republican" fill="#FF0000"/>
          <use xlink:href="#img-3063e03a-34" x="153.56" y="32.39" id="img-3063e03a-75" stroke="#FFFFFF" class="color_Republican" fill="#FF0000"/>
          <use xlink:href="#img-3063e03a-34" x="178.14" y="20.08" id="img-3063e03a-76" stroke="#FFFFFF" class="color_Democratic" fill="#0000FF"/>
          <use xlink:href="#img-3063e03a-34" x="174.81" y="16.64" id="img-3063e03a-77" stroke="#FFFFFF" class="color_Democratic" fill="#0000FF"/>
          <use xlink:href="#img-3063e03a-34" x="163.75" y="24.35" id="img-3063e03a-78" stroke="#FFFFFF" class="color_Democratic" fill="#0000FF"/>
          <use xlink:href="#img-3063e03a-34" x="152.64" y="39.75" id="img-3063e03a-79" stroke="#FFFFFF" class="color_Democratic" fill="#0000FF"/>
          <use xlink:href="#img-3063e03a-34" x="160.26" y="22.71" id="img-3063e03a-80" stroke="#FFFFFF" class="color_Democratic" fill="#0000FF"/>
          <use xlink:href="#img-3063e03a-34" x="140.52" y="30.13" id="img-3063e03a-81" stroke="#FFFFFF" class="color_Democratic" fill="#0000FF"/>
          <use xlink:href="#img-3063e03a-34" x="163.85" y="12.84" id="img-3063e03a-82" stroke="#FFFFFF" class="color_Democratic" fill="#0000FF"/>
          <use xlink:href="#img-3063e03a-34" x="148.37" y="23.96" id="img-3063e03a-83" stroke="#FFFFFF" class="color_Democratic" fill="#0000FF"/>
          <use xlink:href="#img-3063e03a-34" x="104.23" y="46.51" id="img-3063e03a-84" stroke="#FFFFFF" class="color_Democratic" fill="#0000FF"/>
          <use xlink:href="#img-3063e03a-34" x="147.41" y="44.44" id="img-3063e03a-85" stroke="#FFFFFF" class="color_Democratic" fill="#0000FF"/>
          <use xlink:href="#img-3063e03a-34" x="154.08" y="36.95" id="img-3063e03a-86" stroke="#FFFFFF" class="color_Democratic" fill="#0000FF"/>
          <use xlink:href="#img-3063e03a-34" x="144.14" y="40.43" id="img-3063e03a-87" stroke="#FFFFFF" class="color_Democratic" fill="#0000FF"/>
          <use xlink:href="#img-3063e03a-34" x="164.11" y="27.63" id="img-3063e03a-88" stroke="#FFFFFF" class="color_Democratic" fill="#0000FF"/>
          <use xlink:href="#img-3063e03a-34" x="156.55" y="30.86" id="img-3063e03a-89" stroke="#FFFFFF" class="color_Democratic" fill="#0000FF"/>
          <use xlink:href="#img-3063e03a-34" x="158.32" y="25.67" id="img-3063e03a-90" stroke="#FFFFFF" class="color_Democratic" fill="#0000FF"/>
          <use xlink:href="#img-3063e03a-34" x="157.7" y="30.91" id="img-3063e03a-91" stroke="#FFFFFF" class="color_Democratic" fill="#0000FF"/>
          <use xlink:href="#img-3063e03a-34" x="150.4" y="22.48" id="img-3063e03a-92" stroke="#FFFFFF" class="color_Democratic" fill="#0000FF"/>
          <use xlink:href="#img-3063e03a-34" x="152.33" y="31.94" id="img-3063e03a-93" stroke="#FFFFFF" class="color_Democratic" fill="#0000FF"/>
          <use xlink:href="#img-3063e03a-34" x="148.96" y="33.88" id="img-3063e03a-94" stroke="#FFFFFF" class="color_Democratic" fill="#0000FF"/>
          <use xlink:href="#img-3063e03a-34" x="126.82" y="36.04" id="img-3063e03a-95" stroke="#FFFFFF" class="color_Democratic" fill="#0000FF"/>
          <use xlink:href="#img-3063e03a-34" x="142.08" y="34.34" id="img-3063e03a-96" stroke="#FFFFFF" class="color_Democratic" fill="#0000FF"/>
          <use xlink:href="#img-3063e03a-34" x="138.69" y="14.44" id="img-3063e03a-97" stroke="#FFFFFF" class="color_Democratic" fill="#0000FF"/>
          <use xlink:href="#img-3063e03a-34" x="159.43" y="26.68" id="img-3063e03a-98" stroke="#FFFFFF" class="color_Democratic" fill="#0000FF"/>
          <use xlink:href="#img-3063e03a-34" x="117.1" y="38.3" id="img-3063e03a-99" stroke="#FFFFFF" class="color_Democratic" fill="#0000FF"/>
          <use xlink:href="#img-3063e03a-34" x="102.27" y="37.61" id="img-3063e03a-100" stroke="#FFFFFF" class="color_Democratic" fill="#0000FF"/>
          <use xlink:href="#img-3063e03a-34" x="135.78" y="41.4" id="img-3063e03a-101" stroke="#FFFFFF" class="color_Democratic" fill="#0000FF"/>
          <use xlink:href="#img-3063e03a-34" x="182.27" y="11.57" id="img-3063e03a-102" stroke="#FFFFFF" class="color_Democratic" fill="#0000FF"/>
          <use xlink:href="#img-3063e03a-34" x="191.75" y="7.62" id="img-3063e03a-103" stroke="#FFFFFF" class="color_Democratic" fill="#0000FF"/>
          <use xlink:href="#img-3063e03a-34" x="174.76" y="13.35" id="img-3063e03a-104" stroke="#FFFFFF" class="color_Democratic" fill="#0000FF"/>
          <use xlink:href="#img-3063e03a-34" x="171.01" y="14.67" id="img-3063e03a-105" stroke="#FFFFFF" class="color_Democratic" fill="#0000FF"/>
          <use xlink:href="#img-3063e03a-34" x="160.29" y="24.67" id="img-3063e03a-106" stroke="#FFFFFF" class="color_Democratic" fill="#0000FF"/>
          <use xlink:href="#img-3063e03a-34" x="145.67" y="41.25" id="img-3063e03a-107" stroke="#FFFFFF" class="color_Democratic" fill="#0000FF"/>
          <use xlink:href="#img-3063e03a-34" x="139.06" y="42.48" id="img-3063e03a-108" stroke="#FFFFFF" class="color_Democratic" fill="#0000FF"/>
          <use xlink:href="#img-3063e03a-34" x="160.74" y="24.93" id="img-3063e03a-109" stroke="#FFFFFF" class="color_Democratic" fill="#0000FF"/>
          <use xlink:href="#img-3063e03a-34" x="22.8" y="46.99" id="img-3063e03a-110" stroke="#FFFFFF" class="color_Democratic" fill="#0000FF"/>
          <use xlink:href="#img-3063e03a-34" x="192.47" y="10.98" id="img-3063e03a-111" stroke="#FFFFFF" class="color_Democratic" fill="#0000FF"/>
          <use xlink:href="#img-3063e03a-34" x="141.17" y="33.54" id="img-3063e03a-112" stroke="#FFFFFF" class="color_Democratic" fill="#0000FF"/>
          <use xlink:href="#img-3063e03a-34" x="126.63" y="46.84" id="img-3063e03a-113" stroke="#FFFFFF" class="color_Democratic" fill="#0000FF"/>
          <use xlink:href="#img-3063e03a-34" x="161.75" y="25.39" id="img-3063e03a-114" stroke="#FFFFFF" class="color_Democratic" fill="#0000FF"/>
          <use xlink:href="#img-3063e03a-34" x="136.39" y="44.4" id="img-3063e03a-115" stroke="#FFFFFF" class="color_Democratic" fill="#0000FF"/>
          <use xlink:href="#img-3063e03a-34" x="135.11" y="47.15" id="img-3063e03a-116" stroke="#FFFFFF" class="color_Democratic" fill="#0000FF"/>
          <use xlink:href="#img-3063e03a-34" x="149.35" y="39.64" id="img-3063e03a-117" stroke="#FFFFFF" class="color_Democratic" fill="#0000FF"/>
          <use xlink:href="#img-3063e03a-34" x="141.97" y="19.85" id="img-3063e03a-118" stroke="#FFFFFF" class="color_Democratic" fill="#0000FF"/>
          <use xlink:href="#img-3063e03a-34" x="159.39" y="19.16" id="img-3063e03a-119" stroke="#FFFFFF" class="color_Democratic" fill="#0000FF"/>
          <use xlink:href="#img-3063e03a-34" x="157.02" y="27.76" id="img-3063e03a-120" stroke="#FFFFFF" class="color_Democratic" fill="#0000FF"/>
          <use xlink:href="#img-3063e03a-34" x="156.68" y="28.91" id="img-3063e03a-121" stroke="#FFFFFF" class="color_Democratic" fill="#0000FF"/>
          <use xlink:href="#img-3063e03a-34" x="169.54" y="20.23" id="img-3063e03a-122" stroke="#FFFFFF" class="color_Democratic" fill="#0000FF"/>
          <use xlink:href="#img-3063e03a-34" x="164.35" y="22.75" id="img-3063e03a-123" stroke="#FFFFFF" class="color_Democratic" fill="#0000FF"/>
        </g>
      </g>
    </g>
  </g>
</g>
  <g class="guide ylabels" font-size="2.82" font-family="'PT Sans Caption','Helvetica Neue','Helvetica',sans-serif" fill="#6C606B" id="img-3063e03a-124">
    <text x="18.63" y="68.72" text-anchor="end" dy="0.35em" id="img-3063e03a-125">-50</text>
    <text x="18.63" y="48.14" text-anchor="end" dy="0.35em" id="img-3063e03a-126">0</text>
    <text x="18.63" y="27.57" text-anchor="end" dy="0.35em" id="img-3063e03a-127">50</text>
    <text x="18.63" y="7" text-anchor="end" dy="0.35em" id="img-3063e03a-128">100</text>
  </g>
  <g font-size="3.88" font-family="'PT Sans','Helvetica Neue','Helvetica',sans-serif" fill="#564A55" stroke="#000000" stroke-opacity="0.000" id="img-3063e03a-129">
    <text x="8.81" y="35.86" text-anchor="middle" dy="0.35em" transform="rotate(-90, 8.81, 37.86)" id="img-3063e03a-130">Electoral_Percent</text>
  </g>
</g>
<defs>
  <clipPath id="img-3063e03a-13">
  <path d="M19.63,5 L 247.48 5 247.48 70.72 19.63 70.72" />
</clipPath>
  <g id="img-3063e03a-34">
    <circle cx="0" cy="0" r="0.9" id="img-3063e03a-131"/>
  </g>
</defs>
</svg>
